<?xml version="1.0" standalone="no"?>
<!DOCTYPE svg PUBLIC "-//W3C//DTD SVG 20010904//EN"
 "http://www.w3.org/TR/2001/REC-SVG-20010904/DTD/svg10.dtd">
<svg version="1.0" xmlns="http://www.w3.org/2000/svg"
 width="555.000000pt" height="555.000000pt" viewBox="0 0 555.000000 555.000000"
 preserveAspectRatio="xMidYMid meet">
<metadata>
Created by potrace 1.15, written by Peter Selinger 2001-2017
</metadata>
<g transform="translate(0.000000,555.000000) scale(0.100000,-0.100000)"
fill="#000000" stroke="none">
<path d="M2002 5329 c-152 -30 -346 -222 -368 -364 -19 -125 99 -249 297 -310
l55 -17 30 30 c24 23 43 32 87 37 30 4 60 4 66 1 21 -13 238 -7 272 7 83 35
122 123 101 224 -18 89 -69 179 -142 253 -120 120 -254 168 -398 139z m-28
-82 c-21 -63 -31 -114 -24 -132 6 -16 17 -20 59 -21 60 -1 74 -10 47 -30 -23
-16 -93 -19 -130 -4 -23 8 -26 15 -26 57 0 27 7 72 14 101 8 28 11 52 8 52 -4
0 0 4 7 9 24 15 53 -6 45 -32z m318 -34 c10 -9 18 -24 18 -35 0 -11 7 -18 18
-18 19 0 62 -34 62 -49 0 -20 -15 -18 -44 6 l-31 26 -5 -23 c-3 -13 -18 -32
-33 -44 -53 -39 -116 16 -72 64 14 15 14 21 4 38 -27 43 42 72 83 35z m-455
-118 c31 -13 34 -17 22 -31 -9 -11 -22 -14 -47 -9 -37 7 -62 -7 -62 -34 0 -11
10 -17 31 -18 18 -1 34 -5 37 -7 10 -11 -21 -36 -44 -36 -15 0 -24 -6 -24 -15
0 -21 25 -68 44 -84 20 -17 21 -45 2 -60 -19 -16 -73 49 -89 107 -6 23 -17 42
-24 42 -17 0 -16 15 2 30 8 7 15 19 15 27 0 21 38 90 52 96 23 10 48 7 85 -8z
m335 -77 c21 -17 27 -39 16 -60 -14 -27 -38 -22 -38 8 0 16 -5 24 -12 22 -24
-8 -13 -42 19 -61 l32 -18 10 39 c17 60 69 95 111 72 32 -17 24 -80 -11 -80
-15 0 -19 7 -19 33 l-1 32 -19 -24 c-23 -27 -26 -74 -6 -91 12 -9 18 -7 33 9
23 27 35 27 31 -1 -6 -46 -104 -62 -115 -19 -4 17 -7 17 -28 -5 -28 -28 -70
-31 -96 -8 -16 15 -20 15 -41 0 -58 -41 -117 -1 -103 70 14 75 101 115 127 59
9 -21 8 -28 -7 -45 -10 -11 -28 -20 -41 -20 -27 0 -36 -12 -28 -34 8 -21 19
-20 43 5 18 19 20 19 29 4 6 -12 12 -14 16 -7 4 8 14 4 27 -9 16 -16 24 -18
32 -10 9 9 4 18 -21 37 -44 35 -43 76 3 102 26 15 38 15 57 0z m271 -20 c9
-11 17 -27 17 -35 0 -7 9 -27 21 -42 26 -35 20 -75 -18 -115 -49 -54 -80 -60
-271 -58 l-174 3 -34 -36 -34 -37 -15 37 c-13 30 -14 40 -3 63 28 59 110 75
255 47 169 -32 271 -11 273 57 0 14 -4 13 -25 -7 -57 -58 -143 -3 -89 57 13
14 14 21 5 32 -9 11 -9 20 -2 34 20 37 62 37 94 0z"/>
<path d="M2947 5316 c-85 -35 -135 -73 -182 -137 -58 -79 -78 -148 -73 -257 3
-69 9 -100 32 -149 35 -77 122 -163 203 -201 51 -24 70 -27 163 -27 97 0 110
2 172 32 204 96 292 331 199 530 -40 85 -109 156 -189 195 -59 29 -77 33 -166
36 -89 2 -108 0 -159 -22z m483 -376 l0 -130 -340 0 -340 0 0 130 0 130 340 0
340 0 0 -130z"/>
<path d="M2760 4945 l0 -115 330 0 330 0 0 65 0 65 -237 2 -238 3 -3 48 -3 47
-90 0 -89 0 0 -115z m146 70 c3 -8 1 -29 -5 -46 -6 -18 -9 -34 -6 -37 2 -3 28
-4 56 -3 l51 1 -5 -30 c-4 -16 -2 -32 3 -35 6 -4 10 9 10 29 0 38 8 44 28 24
9 -9 12 -9 12 0 0 7 5 12 10 12 6 0 10 -18 10 -40 0 -44 -13 -53 -25 -17 l-8
22 -4 -22 c-3 -16 -11 -23 -29 -23 -13 0 -24 5 -24 12 0 9 -3 9 -12 0 -19 -19
-28 -14 -28 18 0 17 -4 30 -9 30 -13 0 -24 -34 -12 -38 21 -7 11 -23 -11 -20
-18 2 -24 11 -28 40 l-5 36 -22 -18 c-13 -10 -23 -28 -23 -40 0 -15 -5 -20
-17 -18 -15 3 -18 17 -21 91 l-3 87 56 0 c40 0 57 -4 61 -15z"/>
<path d="M3970 5071 c-36 -11 -96 -22 -135 -26 -78 -8 -93 -20 -172 -132 -33
-47 -47 -78 -59 -139 -23 -108 -16 -152 35 -217 22 -30 41 -61 41 -70 0 -30
13 -47 63 -84 47 -34 59 -37 123 -40 56 -2 88 -10 153 -38 79 -35 84 -36 124
-23 39 13 46 21 87 100 25 48 54 96 64 108 15 16 17 23 8 32 -14 14 -16 54 -3
62 5 4 11 1 13 -5 2 -6 15 17 30 52 20 49 23 70 17 94 -5 16 -9 53 -9 82 0 45
-4 54 -31 77 -17 14 -36 26 -42 26 -6 0 -43 34 -82 76 -65 70 -75 76 -116 80
-25 2 -72 -5 -109 -15z m-23 -298 c-2 -10 -8 -27 -12 -38 -6 -16 -5 -18 5 -8
7 6 18 22 24 35 9 18 21 24 54 26 23 2 42 1 42 -2 0 -3 -9 -30 -21 -60 -33
-89 -110 -134 -154 -90 -15 15 -15 18 1 35 9 11 24 18 33 18 13 -1 13 -2 -1
-6 -22 -5 -23 -26 -3 -43 24 -20 59 -4 78 35 21 44 21 44 -2 38 -10 -3 -22 0
-26 7 -5 8 -10 8 -21 -1 -17 -14 -48 -4 -41 14 19 45 19 47 3 47 -17 0 -32
-42 -21 -60 5 -8 1 -11 -11 -8 -25 4 -30 41 -9 62 9 9 32 16 52 16 29 0 34 -3
30 -17z"/>
<path d="M2083 4525 c-83 -23 -142 -55 -204 -113 -64 -58 -114 -148 -123 -217
-6 -40 -5 -40 12 10 30 87 53 124 102 168 56 50 134 90 213 108 34 8 67 23 79
36 l21 23 -24 -1 c-13 0 -47 -7 -76 -14z"/>
<path d="M2080 4433 c-33 -12 -64 -52 -101 -129 -23 -48 -53 -95 -74 -113
l-36 -31 117 0 c107 0 116 1 109 18 -27 63 -24 188 5 242 11 20 7 23 -20 13z"/>
<path d="M2181 4431 c-13 -3 -33 -18 -44 -33 -17 -23 -18 -31 -8 -57 14 -32
56 -54 131 -66 81 -13 102 -38 58 -69 -46 -33 -158 -11 -158 30 0 8 -9 14 -21
14 -29 0 -22 -47 12 -72 75 -56 230 -20 229 54 -1 43 -26 61 -117 83 -68 16
-89 25 -92 40 -5 27 26 45 76 45 33 0 50 -6 69 -25 41 -41 68 -30 43 17 -21
39 -109 59 -178 39z"/>
<path d="M1974 4406 c-90 -42 -156 -114 -189 -205 l-14 -41 38 0 c49 0 81 31
112 108 30 75 56 114 93 140 40 29 24 28 -40 -2z"/>
<path d="M3480 4380 c0 -23 -4 -30 -20 -30 -26 0 -26 -27 0 -35 16 -5 20 -17
22 -83 3 -69 5 -77 23 -77 18 0 21 8 25 80 4 62 8 80 20 80 8 0 16 8 18 18 2
12 -3 17 -17 17 -17 0 -21 6 -21 30 0 25 -4 30 -25 30 -21 0 -25 -5 -25 -30z"/>
<path d="M2474 4350 c-47 -19 -71 -100 -44 -151 23 -41 106 -62 152 -38 15 8
22 8 28 -1 5 -7 15 -10 24 -7 13 5 16 24 16 105 l0 98 -77 1 c-43 1 -88 -2
-99 -7z m84 -31 c19 -6 35 -22 43 -40 10 -26 9 -34 -8 -57 -17 -22 -28 -27
-64 -27 -37 0 -46 4 -58 27 -19 34 -6 77 29 95 14 7 25 13 26 13 1 0 15 -5 32
-11z"/>
<path d="M2704 4346 c-3 -7 -4 -53 -2 -102 3 -81 5 -89 23 -89 18 0 21 8 25
75 5 67 7 76 30 87 14 7 34 10 45 7 36 -11 46 -35 44 -104 -2 -58 -1 -65 17
-65 17 0 19 8 19 82 0 109 -8 118 -116 119 -55 1 -82 -2 -85 -10z"/>
<path d="M2985 4335 c-14 -13 -25 -31 -25 -39 0 -21 27 -45 58 -52 77 -17 87
-21 87 -35 0 -10 -14 -15 -48 -17 -42 -3 -49 0 -54 17 -7 27 -43 28 -43 2 0
-11 12 -29 28 -41 22 -18 36 -21 81 -18 37 4 58 11 67 23 33 45 8 82 -66 98
-36 8 -55 17 -55 27 0 21 68 26 85 6 7 -9 18 -16 26 -16 25 0 25 20 0 45 -35
35 -107 35 -141 0z"/>
<path d="M3237 4344 c-51 -28 -64 -113 -24 -159 41 -49 154 -45 186 7 12 20
11 20 -21 14 -87 -18 -109 -18 -128 -1 -11 10 -20 22 -20 27 0 4 43 8 95 8
l95 0 0 26 c0 14 -5 34 -10 45 -25 45 -117 63 -173 33z"/>
<path d="M4453 4310 c-125 -45 -247 -174 -239 -254 4 -30 16 -48 16 -23 0 11
5 14 17 10 11 -4 14 -3 9 5 -4 7 -2 12 3 12 6 0 11 -5 11 -11 0 -7 7 -8 18 -4
25 11 62 15 207 20 72 3 151 7 177 9 28 2 45 -1 41 -7 -3 -5 15 -8 45 -6 27 2
48 1 45 -3 -2 -5 20 -7 50 -5 31 1 53 -1 51 -4 -2 -4 5 -9 16 -12 26 -7 44 15
27 33 -9 10 -9 11 1 6 18 -11 15 2 -14 53 -51 88 -124 148 -221 182 -73 25
-188 24 -260 -1z"/>
<path d="M2483 4041 c-36 -23 -47 -50 -39 -96 7 -37 22 -53 63 -65 27 -8 27
-8 3 -9 -14 -1 -37 5 -52 13 -31 16 -38 13 -31 -15 7 -26 41 -39 104 -39 42 0
55 -5 80 -29 33 -34 39 -83 13 -119 -20 -29 -9 -28 34 4 88 67 96 210 18 300
l-34 39 11 -42 c10 -37 9 -45 -9 -64 -19 -22 -73 -49 -96 -49 -7 0 1 7 19 16
63 31 68 119 10 155 -40 24 -54 24 -94 0z"/>
<path d="M2398 4021 c-62 -39 -103 -121 -95 -186 8 -58 38 -116 77 -149 32
-26 66 -38 42 -14 -17 17 -15 68 4 89 15 17 15 20 -5 45 -23 29 -26 55 -11 83
6 13 5 24 -5 37 -22 29 -18 50 16 89 17 19 29 35 27 35 -2 0 -25 -13 -50 -29z"/>
<path d="M4365 4039 c-138 -18 -155 -33 -155 -129 0 -58 12 -95 34 -103 9 -4
62 0 119 8 56 8 156 15 222 15 66 0 166 -7 222 -15 57 -8 110 -12 119 -8 23 8
34 46 34 113 0 76 -17 95 -95 110 -79 16 -411 21 -500 9z m210 -39 c3 -6 15
-5 32 3 22 10 28 8 43 -11 15 -18 19 -19 24 -6 8 22 60 15 64 -9 3 -16 0 -18
-20 -12 -22 7 -22 7 -3 -8 18 -14 21 -13 37 14 10 16 23 29 29 29 20 0 49 -21
49 -36 0 -8 4 -13 10 -9 5 3 6 13 3 21 -4 12 0 15 18 12 25 -3 26 -8 15 -64
-5 -26 -3 -32 12 -30 9 0 17 -6 17 -14 0 -15 -7 -16 -99 -7 -22 3 -44 11 -50
19 -10 13 -13 13 -24 2 -17 -18 -51 -18 -58 1 -5 13 -8 13 -21 -1 -12 -11 -50
-12 -59 0 -1 0 -7 10 -13 21 -12 19 -12 19 -8 -2 3 -12 -1 -24 -8 -26 -19 -8
-36 8 -30 29 3 10 -1 7 -8 -8 -13 -28 -25 -26 -46 7 -11 18 -12 18 -6 -7 4
-23 2 -28 -15 -28 -16 0 -19 5 -15 23 3 12 1 36 -4 52 -9 28 -9 27 -10 -17 -1
-37 -6 -50 -21 -58 -32 -17 -57 3 -65 52 -7 42 -14 39 -29 -9 -6 -18 -4 -22 8
-17 11 4 16 0 16 -15 0 -22 -37 -38 -65 -28 -11 5 -12 12 -4 36 9 25 8 34 -5
47 -24 24 -20 33 22 39 20 3 50 8 65 10 22 4 28 1 26 -13 -4 -42 2 -82 12 -82
8 0 10 17 7 50 l-5 50 43 0 c40 0 45 -3 57 -32 l14 -33 8 25 c14 45 44 66 60
40z"/>
<path d="M890 3933 l0 -93 90 0 c73 0 90 3 90 15 0 12 -15 15 -75 15 -73 0
-75 1 -75 25 0 23 4 25 40 25 29 0 40 4 40 15 0 11 -11 15 -40 15 -36 0 -40 3
-40 25 0 24 2 25 75 25 53 0 75 4 75 13 0 9 -25 12 -90 12 l-90 0 0 -92z"/>
<path d="M1120 3933 l0 -93 90 0 c73 0 90 3 90 15 0 12 -15 15 -75 15 -73 0
-75 1 -75 25 0 22 4 25 35 25 24 0 35 5 35 15 0 10 -11 15 -35 15 -31 0 -35 3
-35 25 0 24 2 25 75 25 106 0 94 18 -15 22 l-90 3 0 -92z"/>
<path d="M1350 3933 c0 -76 3 -93 15 -93 12 0 15 16 15 81 0 78 1 80 23 77 20
-3 22 -9 25 -80 2 -53 7 -78 15 -78 8 0 11 20 10 66 -2 79 3 94 28 94 17 0 19
-8 19 -80 0 -64 3 -80 15 -80 12 0 15 17 15 89 l0 90 -90 3 -90 3 0 -92z"/>
<path d="M1580 3933 c0 -76 3 -93 15 -93 11 0 15 11 15 40 l0 40 60 0 60 0 0
-40 c0 -31 4 -40 18 -40 15 0 17 10 15 87 l-1 88 -91 5 -91 5 0 -92z"/>
<path d="M2832 3897 c-29 -30 -30 -89 -2 -117 16 -16 32 -20 73 -18 28 1 54 6
58 10 3 4 3 24 1 43 -4 31 -7 35 -33 35 -30 0 -41 -24 -16 -33 8 -3 6 -7 -5
-12 -29 -12 -48 2 -48 33 0 36 25 61 42 44 14 -14 58 -16 58 -4 0 19 -39 42
-72 42 -23 0 -42 -8 -56 -23z"/>
<path d="M3035 3908 c-18 -50 -45 -133 -45 -140 0 -11 38 -10 45 2 3 6 17 10
30 10 13 0 27 -4 30 -10 3 -5 17 -10 30 -10 l24 0 -29 78 c-24 67 -31 77 -54
80 -15 2 -28 -2 -31 -10z"/>
<path d="M3310 3840 l0 -80 65 0 c58 0 65 2 65 20 0 17 -7 20 -40 20 -22 0
-40 5 -40 10 0 6 16 10 35 10 28 0 35 4 35 20 0 16 -7 20 -35 20 -19 0 -35 5
-35 10 0 6 18 10 40 10 33 0 40 3 40 20 0 18 -7 20 -65 20 l-65 0 0 -80z"/>
<path d="M3470 3840 c0 -80 0 -80 26 -80 25 0 26 2 21 40 -3 22 -3 40 -1 40 2
0 16 -18 30 -40 19 -28 34 -40 50 -40 23 0 24 3 24 80 0 79 0 80 -25 80 -23 0
-25 -4 -25 -42 l0 -43 -26 43 c-19 31 -31 42 -50 42 -23 0 -24 -2 -24 -80z"/>
<path d="M3669 3901 c-18 -14 -24 -29 -24 -61 0 -49 29 -80 75 -80 42 0 59 9
76 42 17 33 12 72 -13 101 -22 23 -84 22 -114 -2z"/>
<path d="M3840 3906 c-15 -19 -9 -56 10 -67 8 -5 28 -14 45 -20 22 -8 26 -12
15 -19 -8 -5 -22 -4 -32 1 -11 6 -29 9 -41 7 l-22 -3 23 -22 c38 -39 109 -27
125 20 8 21 -25 57 -52 57 -19 0 -38 17 -29 25 2 2 20 0 41 -4 40 -9 47 -2 21
23 -19 20 -88 21 -104 2z"/>
<path d="M2472 3767 c-39 -47 -30 -100 20 -121 35 -15 68 -8 100 21 18 16 24
59 10 79 -21 32 -109 46 -130 21z"/>
<path d="M1380 3658 c-25 -5 -49 -14 -55 -20 -7 -6 0 -7 20 -1 47 13 155 8
216 -10 88 -26 148 -73 193 -151 32 -55 39 -79 42 -129 1 -34 6 -77 9 -94 11
-52 -2 -102 -31 -115 -24 -11 -74 -84 -84 -123 -13 -47 -151 -104 -256 -106
-52 -1 -56 -2 -29 -10 62 -20 195 12 276 66 21 14 43 25 49 25 18 0 59 53 60
77 0 12 4 25 10 28 5 3 19 38 31 77 63 207 -56 419 -266 472 -83 22 -133 25
-185 14z"/>
<path d="M3390 3370 c0 -100 3 -120 15 -120 15 0 20 42 15 129 -2 44 7 37 76
-54 31 -41 59 -75 63 -75 4 0 34 37 66 82 l60 81 3 -81 c2 -56 7 -82 15 -82 7
0 3 -7 -7 -15 -11 -8 -15 -15 -9 -15 5 0 18 8 27 19 14 15 16 37 14 131 -2 75
-7 115 -15 117 -6 2 -42 -36 -80 -86 -37 -50 -70 -90 -73 -91 -3 0 -36 41 -74
90 -38 50 -75 90 -82 90 -11 0 -14 -25 -14 -120z"/>
<path d="M705 3333 c-26 -48 -53 -104 -62 -123 l-15 -35 -18 57 c-10 32 -21
82 -24 112 -5 36 -13 56 -23 60 -29 12 -34 -9 -17 -80 23 -98 43 -226 37 -240
-5 -14 33 -38 47 -29 5 3 16 29 25 56 8 28 28 80 45 116 28 59 64 182 56 191
-2 2 -25 -37 -51 -85z"/>
<path d="M1490 3300 c-22 -22 -40 -44 -40 -50 0 -5 -4 -10 -9 -10 -6 0 -6 12
-1 30 7 24 5 32 -10 40 -15 8 -19 5 -25 -17 -3 -14 -3 -54 0 -87 4 -36 2 -73
-4 -89 -9 -23 -8 -31 5 -44 21 -21 32 -8 44 56 14 74 41 130 84 174 32 32 34
37 16 37 -11 0 -38 -18 -60 -40z"/>
<path d="M1099 3317 c-8 -7 -32 -37 -52 -67 l-37 -55 0 43 c0 59 -16 52 -36
-14 -15 -53 -16 -146 -1 -161 14 -13 35 20 52 80 15 54 59 147 70 147 2 0 3
-35 2 -77 -1 -77 1 -91 22 -147 19 -48 22 -24 4 32 -14 43 -15 65 -6 134 11
88 7 104 -18 85z"/>
<path d="M1626 3298 c-46 -37 -86 -121 -86 -178 0 -34 4 -42 26 -52 51 -23
115 33 144 127 7 22 17 48 22 58 6 12 5 23 -3 33 -10 12 -17 10 -47 -13 l-36
-27 22 35 c19 32 20 49 3 49 -4 0 -24 -14 -45 -32z"/>
<path d="M1328 3304 c-4 -3 -12 -7 -20 -8 -32 -5 -62 -35 -89 -88 -31 -61 -36
-87 -18 -105 8 -8 6 -15 -8 -24 -19 -15 -29 -39 -15 -39 5 0 17 6 28 14 10 8
30 13 44 10 14 -2 19 -1 13 2 -19 8 -16 28 7 49 51 46 109 195 76 195 -7 0
-15 -3 -18 -6z"/>
<path d="M3221 2996 c-9 -11 -5 -19 18 -38 17 -15 26 -30 22 -37 -4 -7 -7 -33
-6 -59 2 -26 -2 -50 -9 -54 -7 -5 -6 -8 5 -8 9 0 25 21 39 50 13 27 25 48 27
46 3 -2 -3 -18 -11 -35 -21 -39 -20 -55 0 -17 l16 28 34 -33 c37 -36 50 -38
174 -30 25 1 59 0 76 -4 43 -9 52 10 22 43 -19 21 -24 34 -19 57 3 17 6 39 5
50 -3 60 -5 60 -30 15 -14 -25 -23 -37 -20 -27 16 47 15 50 0 20 l-17 -31 -24
24 c-13 13 -29 21 -35 18 -7 -4 -8 -2 -4 4 4 7 -3 17 -19 24 -20 9 -40 8 -95
-4 -59 -12 -72 -12 -81 -1 -15 17 -53 17 -68 -1z m234 -4 c11 -8 12 -43 1 -60
-3 -6 9 -23 28 -37 23 -17 33 -32 30 -43 -3 -9 2 -6 10 8 17 28 22 19 5 -11
-5 -11 -14 -17 -18 -14 -5 2 -14 -2 -21 -10 -7 -8 -28 -15 -47 -15 -34 0 -35
1 -31 35 3 29 -1 40 -29 67 -26 25 -30 35 -22 50 5 10 7 18 5 18 -3 0 -14 -17
-25 -37 -11 -21 -20 -33 -21 -28 0 17 40 76 48 71 4 -3 14 -1 22 5 18 11 51
11 65 1z"/>
<path d="M4037 2973 c-19 -18 3 -23 115 -25 86 -2 123 -7 126 -15 3 -10 -22
-13 -103 -13 -126 0 -145 -7 -145 -55 0 -43 27 -49 32 -7 3 26 4 27 69 26 52
0 76 -6 114 -27 26 -15 51 -27 56 -27 17 0 9 25 -12 38 l-21 14 21 14 c26 19
27 60 2 74 -21 11 -244 14 -254 3z"/>
<path d="M4655 2955 c-29 -28 -32 -65 -9 -100 16 -24 19 -25 146 -25 99 0 129
3 126 13 -3 8 -38 13 -118 15 -116 3 -140 10 -140 43 0 40 25 49 146 49 95 0
114 3 114 15 0 13 -20 15 -120 15 -115 0 -122 -1 -145 -25z"/>
<path d="M4973 2973 c-9 -3 -13 -28 -13 -74 0 -55 3 -69 15 -69 11 0 15 12 15
49 0 28 4 52 8 55 5 3 51 -20 102 -50 53 -31 102 -54 114 -52 19 3 21 10 24
76 2 59 0 72 -13 72 -12 0 -15 -12 -15 -55 0 -35 -4 -55 -12 -55 -6 0 -53 25
-103 55 -93 55 -99 58 -122 48z"/>
<path d="M3499 2611 c-17 -18 -29 -40 -29 -56 0 -31 37 -70 83 -90 47 -19 67
-45 56 -72 -19 -52 -97 -33 -124 30 l-14 32 -1 -50 0 -50 64 -3 c56 -3 67 0
95 23 23 20 31 35 31 58 0 43 -6 50 -74 89 -76 43 -88 61 -59 90 19 18 27 20
50 12 15 -5 38 -24 50 -43 l23 -34 0 49 c0 35 -3 45 -11 37 -7 -7 -21 -8 -42
-2 -50 14 -67 11 -98 -20z"/>
<path d="M2010 2612 c-16 -13 -24 -32 -27 -69 -5 -45 -2 -55 20 -77 26 -26 66
-33 102 -20 21 8 45 56 45 89 0 33 -24 81 -45 89 -31 11 -73 6 -95 -12z m89
-2 c31 -16 45 -63 31 -104 -20 -60 -73 -74 -117 -30 -22 22 -25 32 -20 67 9
63 57 94 106 67z"/>
<path d="M2180 2536 c0 -62 4 -95 10 -91 6 3 10 24 10 46 0 39 0 39 39 39 43
0 55 -10 69 -60 l10 -35 1 31 c1 16 -5 39 -13 49 -11 16 -11 21 0 33 8 7 14
21 14 30 0 35 -18 46 -79 50 l-61 4 0 -96z"/>
<path d="M4628 2618 c17 -17 17 -244 0 -251 -7 -3 7 -6 32 -6 l45 -1 -3 135
-3 135 -42 0 c-32 0 -38 -3 -29 -12z"/>
<path d="M3240 2488 c-71 -73 -130 -132 -130 -133 0 0 61 1 135 3 l135 3 0
130 c0 71 -2 129 -5 129 -2 0 -63 -59 -135 -132z"/>
<path d="M3720 2537 c-32 -16 -36 -62 -5 -62 15 0 20 7 20 29 0 33 18 44 40
26 25 -21 18 -59 -12 -70 -54 -20 -74 -34 -79 -57 -12 -46 39 -69 87 -40 17
10 23 10 26 0 6 -18 48 -16 63 2 9 10 9 15 1 15 -7 0 -11 22 -11 59 0 42 -5
65 -17 79 -23 26 -80 35 -113 19z"/>
<path d="M4144 2536 c-60 -26 -70 -124 -17 -166 38 -30 83 -26 118 10 75 78
-3 197 -101 156z"/>
<path d="M4514 2543 c-33 -6 -56 -38 -61 -86 -4 -36 -1 -48 22 -75 32 -38 79
-43 113 -12 27 26 28 34 3 20 -41 -22 -81 1 -81 46 0 22 4 24 50 24 42 0 50 3
50 19 0 41 -49 73 -96 64z"/>
<path d="M3883 2529 c13 -8 17 -24 17 -77 0 -38 -5 -73 -11 -79 -8 -8 2 -12
35 -14 28 -3 42 -1 36 5 -16 16 -12 132 5 146 31 26 45 5 45 -68 0 -37 -4 -72
-9 -77 -6 -6 6 -10 35 -10 45 0 51 4 34 21 -5 5 -10 43 -12 84 l-3 75 -38 3
c-21 2 -45 -2 -53 -9 -10 -8 -14 -8 -14 0 0 6 -18 11 -42 11 -34 -1 -39 -3
-25 -11z"/>
<path d="M750 2010 l0 -30 65 0 65 0 0 -120 0 -120 30 0 30 0 0 120 0 120 65
0 65 0 0 30 0 30 -160 0 -160 0 0 -30z"/>
<path d="M1170 2027 c-13 -7 -30 -24 -37 -37 -15 -30 -17 -141 -3 -191 15 -52
44 -62 180 -57 145 4 150 9 150 145 0 107 -7 126 -51 142 -44 15 -208 14 -239
-2z m224 -63 c3 -9 6 -47 6 -84 0 -84 -7 -90 -107 -90 -92 0 -105 11 -111 87
-7 96 1 103 112 103 76 0 95 -3 100 -16z"/>
<path d="M1540 1890 l0 -150 30 0 30 0 0 70 c0 39 4 70 9 70 5 0 11 -3 13 -7
2 -5 35 -36 74 -70 64 -56 76 -63 115 -63 l43 0 -59 53 c-33 28 -72 63 -88 77
l-29 25 86 70 85 70 -40 3 c-37 3 -46 -2 -122 -68 l-82 -72 -3 71 -3 71 -29 0
-30 0 0 -150z"/>
<path d="M1935 2028 c-30 -17 -35 -28 -35 -80 0 -69 14 -78 121 -79 49 -1 94
-3 99 -4 6 -1 17 -3 25 -4 21 -1 20 -57 -1 -65 -9 -3 -67 -6 -130 -6 l-114 0
0 -25 0 -25 135 0 c131 0 137 1 160 25 32 31 34 96 5 125 -17 17 -33 20 -107
20 -117 0 -133 5 -133 41 0 32 0 32 88 29 82 -2 112 7 112 36 0 24 -1 24 -102
24 -58 0 -112 -6 -123 -12z"/>
<path d="M2324 2026 c-40 -18 -44 -30 -44 -141 0 -138 2 -140 169 -140 166 0
165 -1 169 134 4 92 2 99 -21 127 -25 28 -28 29 -134 32 -76 1 -117 -2 -139
-12z m224 -58 c7 -7 12 -40 12 -79 0 -87 -14 -99 -117 -99 -92 0 -103 10 -103
95 0 97 -2 95 104 95 58 0 96 -4 104 -12z"/>
<path d="M2690 2009 l0 -30 105 3 c58 2 105 0 105 -4 0 -3 -50 -48 -110 -99
-156 -131 -155 -133 63 -137 l167 -2 0 25 0 25 -116 0 c-64 0 -114 4 -112 9 2
5 51 50 111 101 152 132 148 140 -65 140 l-148 0 0 -31z"/>
<path d="M3270 1673 c-17 -12 -50 -15 -152 -14 l-131 2 -51 -50 -51 -51 -345
-2 c-299 -3 -345 -5 -345 -18 0 -13 45 -16 325 -20 l325 -5 -29 -23 -29 -22
-664 0 c-365 0 -668 -2 -674 -5 -5 -4 -7 -11 -4 -16 4 -5 275 -9 682 -9 l675
0 46 41 47 41 332 -1 c265 -1 337 -4 359 -16 48 -25 88 17 59 61 -18 28 -33
30 -61 9 -16 -12 -73 -14 -333 -15 l-315 0 29 30 29 30 130 0 c95 -1 136 -4
149 -14 36 -28 77 7 62 53 -8 25 -39 32 -65 14z"/>
<path d="M3840 1345 c-10 -12 -101 -14 -652 -15 -352 0 -644 -2 -649 -5 -34
-21 23 -25 381 -25 342 0 394 -2 415 -16 23 -15 25 -15 31 0 5 14 34 16 234
16 190 0 230 -2 240 -15 20 -24 59 -19 72 10 9 21 8 28 -7 45 -21 24 -48 26
-65 5z"/>
<path d="M1480 1040 c-11 -11 -17 -26 -14 -35 5 -13 42 -15 259 -15 147 0 256
-4 260 -9 3 -5 -16 -65 -43 -133 l-48 -123 -132 -3 c-155 -3 -150 -8 -102 108
16 40 27 76 24 81 -3 5 -45 9 -94 9 -106 0 -89 19 -175 -200 -31 -80 -72 -184
-91 -233 -19 -48 -32 -92 -29 -97 7 -12 164 -13 182 -2 7 4 34 61 60 126 49
121 70 149 99 131 8 -6 39 -66 67 -135 l52 -125 129 -3 c86 -2 133 1 142 9 15
12 19 48 7 50 -5 1 -27 2 -51 4 -24 1 -47 6 -51 11 -17 18 -73 173 -66 183 3
6 30 11 60 11 30 0 66 5 82 11 38 14 89 65 104 103 7 17 18 45 24 61 52 124
57 144 51 179 -5 27 -14 40 -32 46 -14 6 -164 10 -340 10 -299 0 -315 -1 -334
-20z"/>
<path d="M2302 1044 c-29 -20 -28 -42 3 -54 27 -10 30 -21 15 -48 -5 -9 -30
-71 -56 -137 -25 -66 -70 -182 -100 -257 -30 -75 -54 -143 -54 -152 0 -14 32
-16 293 -16 215 0 296 3 305 12 16 16 15 48 0 49 -7 0 -83 0 -168 0 -169 0
-200 4 -200 26 0 23 60 167 73 175 7 4 67 8 134 8 113 0 123 2 137 21 29 42
13 49 -115 49 -142 0 -138 -6 -83 134 58 149 34 136 254 136 179 0 191 1 211
21 16 16 18 23 8 35 -18 22 -625 21 -657 -2z"/>
<path d="M3023 1050 c-30 -12 -32 -60 -3 -60 34 0 34 1 -129 -414 -39 -98 -68
-182 -65 -187 8 -13 571 -11 595 1 18 10 27 50 12 50 -5 1 -88 2 -185 3 -113
1 -181 6 -188 13 -8 8 0 38 28 110 157 394 184 465 179 479 -5 12 -26 15 -114
14 -59 0 -118 -4 -130 -9z"/>
<path d="M3670 1040 c-27 -27 -25 -39 6 -50 20 -8 24 -14 18 -33 -7 -21 -185
-479 -204 -525 -23 -54 -33 -52 283 -52 282 0 295 1 312 20 32 36 8 42 -177
45 -212 4 -198 2 -198 19 0 8 39 112 86 232 132 336 134 340 121 353 -7 7 -53
11 -119 11 -95 0 -110 -2 -128 -20z"/>
</g>
</svg>
